<?xml version="1.0" encoding="iso-8859-1"?>
<!-- Generator: Adobe Illustrator 19.0.0, SVG Export Plug-In . SVG Version: 6.00 Build 0)  -->
<svg xmlns="http://www.w3.org/2000/svg" xmlns:xlink="http://www.w3.org/1999/xlink" version="1.1" id="Layer_1" x="0px" y="0px" viewBox="0 0 511.999 511.999" style="enable-background:new 0 0 511.999 511.999;" xml:space="preserve">
<path style="fill:#F4CF9D;" d="M357.817,146.903c0,0-73.901-38.49-113.93-32.332c-28.836,4.435-64.061-4.708-81.509-10.171  c-0.999-0.45-10.796-3.211-14.324,2.617c-0.226,0.504-0.454,1.035-0.678,1.589l-0.002,0.003l0,0  c-7.019,17.244-11.992,57.767,87.274,70.624c0,0,24.633,53.887,107.772,49.268v95.513h79.559V146.903H357.817z"/>
<path style="fill:#EFBF86;" d="M421.978,324.015v-75.88c-33.301-19.885-56.643-59.683-88.81-50.416  c-39.313,11.327-98.521-18.485-98.521-18.485s24.633,53.887,107.772,49.268v95.513H421.978z"/>
<path style="fill:#88DCE5;" d="M447.843,125.445h-24.867c-6.804,0-12.318,5.514-12.318,12.317v185.789  c0,6.803,5.514,12.317,12.318,12.317h24.867V125.445z"/>
<path style="fill:#E2B481;" d="M161.093,294.744l122.029,110.833c8.899,8.084,22.668,7.421,30.752-1.481  c7.534-8.295,7.464-20.814,0.213-29.024l0.164,0.149c8.9,8.083,22.668,7.421,30.752-1.482c7.52-8.276,7.462-20.764,0.252-28.973  c8.905,7.214,21.992,6.323,29.795-2.269c7.549-8.314,7.463-20.871,0.168-29.078c8.904,7.187,21.968,6.288,29.762-2.295  c8.083-8.899,7.421-22.666-1.48-30.75L342.421,228.5c0,0-72.363,3.541-107.772-49.268c0,0-58.106-7.097-84.404-34.951h-56.38  v150.462h67.228V294.744z"/>
<g>
	<path style="fill:#F4CF9D;" d="M106.986,307.597c-8.083-8.898-7.421-22.667,1.48-30.749l54.286-49.302   c8.902-8.083,22.668-7.42,30.753,1.479l0,0c8.082,8.902,7.42,22.668-1.48,30.755l-54.286,49.3   C128.839,317.163,115.07,316.5,106.986,307.597L106.986,307.597z"/>
	<path style="fill:#F4CF9D;" d="M136.663,339.434c-8.082-8.899-7.42-22.668,1.48-30.751l54.285-49.301   c8.902-8.085,22.669-7.42,30.753,1.477l0,0c8.086,8.903,7.423,22.67-1.48,30.754l-54.283,49.302   C158.515,348.999,144.748,348.337,136.663,339.434L136.663,339.434z"/>
	<path style="fill:#F4CF9D;" d="M168.879,368.39c-8.086-8.9-7.421-22.668,1.479-30.75l54.284-49.302   c8.902-8.085,22.669-7.42,30.753,1.479l0,0c8.085,8.902,7.423,22.667-1.48,30.753l-54.284,49.301   C190.729,377.956,176.962,377.293,168.879,368.39L168.879,368.39z"/>
	<path style="fill:#F4CF9D;" d="M261.637,313.235l-52.221,47.426c-8.902,8.082-9.564,21.85-1.48,30.75   c7.21,7.943,18.937,9.308,27.704,3.773l52.221-47.426c8.902-8.086,9.563-21.85,1.48-30.754   C282.13,309.066,270.403,307.702,261.637,313.235z"/>
</g>
<g>
	<path style="fill:#EFBF86;" d="M124.958,289.547l54.285-49.301c5.083-4.617,11.756-6.368,18.05-5.373   c-0.922-2.086-2.172-4.066-3.788-5.846c-8.084-8.898-21.85-9.562-30.753-1.479l-54.286,49.302   c-8.902,8.081-9.563,21.849-1.48,30.749c3.465,3.818,7.978,6.108,12.703,6.856C116.004,306.114,117.835,296.012,124.958,289.547z"/>
	<path style="fill:#EFBF86;" d="M154.634,321.381l54.285-49.301c5.085-4.618,11.757-6.369,18.051-5.373   c-0.921-2.086-2.172-4.065-3.789-5.847c-8.083-8.898-21.85-9.563-30.753-1.477l-54.285,49.301c-8.9,8.082-9.563,21.85-1.48,30.751   c3.467,3.817,7.98,6.107,12.705,6.854C145.682,337.949,147.515,327.849,154.634,321.381z"/>
	<path style="fill:#EFBF86;" d="M186.849,350.338l54.284-49.301c5.085-4.618,11.757-6.369,18.052-5.373   c-0.922-2.085-2.173-4.065-3.79-5.845c-8.083-8.899-21.85-9.564-30.753-1.479l-54.284,49.302c-8.9,8.081-9.565,21.849-1.479,30.75   c3.465,3.817,7.978,6.108,12.702,6.855C177.895,366.905,179.728,356.804,186.849,350.338z"/>
	<path style="fill:#EFBF86;" d="M225.907,373.358l52.221-47.425c4.553-2.875,9.903-3.871,15.006-3.068   c-5.41-12.279-20.371-16.653-31.497-9.631l-52.221,47.426c-8.902,8.082-9.564,21.85-1.48,30.75   c3.464,3.818,7.976,6.098,12.697,6.841C216.956,389.914,218.789,379.822,225.907,373.358z"/>
</g>
<path style="fill:#88DCE5;" d="M64.156,125.445h24.87c6.801,0,12.317,5.514,12.317,12.317v185.789  c0,6.803-5.515,12.317-12.317,12.317h-24.87V125.445z"/>
<g>
	<path style="fill:#4CC7D3;" d="M89.026,230.656h-24.87v105.211h24.87c6.801,0,12.317-5.513,12.317-12.317V218.339   C101.343,225.142,95.827,230.656,89.026,230.656z"/>
	<path style="fill:#4CC7D3;" d="M422.974,230.656h24.87v105.211h-24.87c-6.801,0-12.317-5.513-12.317-12.317V218.339   C410.656,225.142,416.173,230.656,422.974,230.656z"/>
</g>
<path style="fill:#6B6968;" d="M7.646,345.106c0,6.802,5.515,12.317,12.318,12.317h33.872c6.802,0,12.318-5.514,12.318-12.317  V113.032c0-6.803-5.515-12.318-12.318-12.318H19.964c-6.802,0-12.318,5.514-12.318,12.318  C7.646,113.032,7.646,345.106,7.646,345.106z"/>
<path style="fill:#514E4C;" d="M53.837,241.133H19.965c-6.802,0-12.318-5.515-12.318-12.317v116.291  c0,6.802,5.515,12.317,12.318,12.317h33.872c6.802,0,12.318-5.514,12.318-12.317V228.815  C66.155,235.617,60.639,241.133,53.837,241.133z"/>
<path style="fill:#6B6968;" d="M504.353,345.106c0,6.802-5.514,12.317-12.318,12.317h-33.872c-6.802,0-12.318-5.514-12.318-12.317  V113.032c0-6.803,5.515-12.318,12.318-12.318h33.872c6.804,0,12.318,5.514,12.318,12.318V345.106z"/>
<path style="fill:#514E4C;" d="M492.035,241.133h-33.872c-6.802,0-12.318-5.515-12.318-12.317v116.291  c0,6.802,5.515,12.317,12.318,12.317h33.872c6.802,0,12.318-5.514,12.318-12.317V228.815  C504.353,235.617,498.837,241.133,492.035,241.133z"/>
<path d="M492.174,93.121h-33.893c-10.932,0-19.825,8.895-19.825,19.825v4.92h-15.382c-9.913,0-19.825,7.323-19.825,21.47h-43.564  c-11.599-5.87-77.897-38.258-116.947-32.264c-37.583,5.784-88.109-13.266-88.612-13.458c-3.192-1.217-6.803-0.128-8.786,2.653  c-0.591,0.828-13.478,19.292-7.015,40.446h-29.621c-0.514-10.477-9.175-18.849-19.776-18.849H73.543v-4.92  c0-10.932-8.895-19.825-19.825-19.825H19.825C8.895,93.121,0,102.015,0,112.947v184.075c0,4.143,3.357,7.5,7.5,7.5  s7.5-3.357,7.5-7.5V112.947c0-2.66,2.164-4.824,4.824-4.824h33.893c2.66,0,4.824,2.164,4.824,4.824v12.421  c0,7.552,0,204.079,0,219.79c0,2.66-2.164,4.824-4.824,4.824H19.825c-2.66,0-4.824-2.164-4.824-4.824v-21.799  c0-4.143-3.357-7.5-7.5-7.5s-7.5,3.357-7.5,7.5v21.799c0,10.932,8.895,19.825,19.825,19.825h33.893  c9.531,0,19.825-6.923,19.825-21.568h15.384c10.932,0,19.825-8.895,19.825-19.825v-5.028c4.447,2.487,9.488,3.787,14.815,3.696  c-1.613,18.288,13.726,33.534,32.102,31.7c0.077,20.532,20.633,34.266,39.413,27.341c3.131,20.636,26.601,31.637,44.549,20.31  c0.904-0.572,0.476-0.279,14.025-12.584l24.439,22.193c19.333,17.56,49.963,2.82,48.962-22.823  c18.009,1.087,32.289-13.847,31.095-31.236c17.325,0.547,31.328-14.122,30.067-31.389c5.186,0.133,10.4-1.124,15.031-3.712  c0,14.074,10.025,21.357,19.825,21.357h15.382v1.743c0,10.932,8.895,19.825,19.825,19.825h33.893  c10.932,0,19.825-8.895,19.825-19.825V112.947C512,102.015,503.105,93.121,492.174,93.121z M88.927,328.414H73.543V132.868h15.384  c2.66,0,4.824,2.164,4.824,4.824c0,8.403,0,177.967,0,185.898C93.751,326.25,91.587,328.414,88.927,328.414z M112.451,302.586  l-0.001-0.002c-5.307-5.843-4.874-14.865,0.971-20.172l54.317-49.331c5.832-5.294,14.882-4.857,20.175,0.969  c5.197,5.724,4.859,14.545-0.668,19.876l-54.214,49.237c-0.158,0.144-0.307,0.294-0.462,0.441  C126.699,308.884,117.727,308.396,112.451,302.586z M138.452,324.153c0.177-3.671,1.732-7.054,4.368-9.592l54.209-49.229  c0.166-0.151,0.322-0.309,0.484-0.462c5.833-5.219,14.824-4.768,20.095,1.035c2.565,2.825,3.878,6.48,3.694,10.291  c-0.126,2.612-0.959,5.076-2.372,7.199l-53.665,48.739c-1.238,1.124-2.36,2.342-3.373,3.63  C152.345,343.786,137.86,336.505,138.452,324.153z M174.38,363.414C174.379,363.414,174.379,363.413,174.38,363.414  c-4.523-4.98-4.85-12.187-1.323-17.487l53.666-48.739c1.24-1.126,2.364-2.347,3.378-3.638c2.658-2.229,5.909-3.343,9.161-3.343  c8.136,0,14.667,6.771,14.274,14.963c-0.142,2.939-1.168,5.695-2.924,7.982l-46.267,42.016c-0.929,0.843-1.789,1.742-2.592,2.679  l-7.199,6.538C188.753,369.652,179.722,369.299,174.38,363.414z M231.121,389.226c-13.429,7.732-27.866-8.744-18.438-21.041  l46.272-42.023c0.923-0.838,1.779-1.731,2.577-2.663l4.614-4.19c5.789-3.336,13.131-2.213,17.66,2.774  c5.294,5.83,4.858,14.882-0.97,20.177L231.121,389.226z M379.998,307.618c-7.085-5.72-16.41,3.965-10.317,10.82  c4.852,5.456,4.802,13.654-0.115,19.068c-5.078,5.592-13.66,6.243-19.537,1.484c-7.079-5.734-16.386,3.914-10.356,10.778  c4.789,5.452,4.716,13.62-0.171,18.999c-5.057,5.569-13.965,6.589-20.348,0.813c-2.952-2.67-7.475-2.572-10.305,0.227  c-2.831,2.797-2.984,7.318-0.35,10.301c4.818,5.454,4.756,13.637-0.145,19.032c-5.305,5.844-14.329,6.28-20.174,0.972l-23.367-21.22  l28.111-25.528c21.581-19.604,4.115-55.284-24.419-50.576c-0.924-16.478-15.444-29.099-32.184-27.425  c-0.062-16.277-13.426-29.408-29.83-29.111c2.35-26.497-29.159-42.143-48.836-24.275l-48.902,44.413V151.717h37.678  c13.827,17.008,41.792,28.554,83.442,34.398c17.318,29.143,55.238,52.147,109.978,49.986l58.774,49.918  c2.774,2.557,4.4,6.036,4.582,9.811C403.792,308.034,389.6,315.37,379.998,307.618z M342.054,220.996  c-32.273,1.788-58.991-5.217-79.43-20.835c-15.216-11.629-21.125-23.999-21.168-24.091c-1.076-2.354-3.291-3.987-5.857-4.319  c-43.694-5.66-98.76-21.952-80.666-61.937c15.386,5.181,56.348,17.272,90.086,12.087c37.163-5.727,108.675,31.216,109.393,31.59  c2.243,1.168-0.414,0.848,48.837,0.848v115.927C343.2,219.263,346.175,220.772,342.054,220.996z M496.999,345.158  c0,2.66-2.164,4.824-4.824,4.824h-33.893c-2.66,0-4.824-2.164-4.824-4.824V177.023c0-4.143-3.357-7.5-7.5-7.5  c-4.143,0-7.5,3.357-7.5,7.5v151.391h-15.382c-2.66,0-4.824-2.164-4.824-4.824V137.692c0-2.66,2.164-4.824,4.824-4.824h15.382  v18.815c0,4.143,3.357,7.5,7.5,7.5c4.143,0,7.5-3.357,7.5-7.5v-38.736c0-2.66,2.164-4.824,4.824-4.824h33.893  c2.66,0,4.824,2.164,4.824,4.824V345.158z"/>
<g>
</g>
<g>
</g>
<g>
</g>
<g>
</g>
<g>
</g>
<g>
</g>
<g>
</g>
<g>
</g>
<g>
</g>
<g>
</g>
<g>
</g>
<g>
</g>
<g>
</g>
<g>
</g>
<g>
</g>
</svg>
