<?xml version="1.0" encoding="utf-8"?>
<!-- Generator: Adobe Illustrator 21.1.0, SVG Export Plug-In . SVG Version: 6.00 Build 0)  -->
<svg version="1.1" id="Layer_1" xmlns="http://www.w3.org/2000/svg" xmlns:xlink="http://www.w3.org/1999/xlink" x="0px" y="0px"
	 viewBox="0 0 64 64" style="enable-background:new 0 0 64 64;" xml:space="preserve">
<style type="text/css">
	.st0{fill:#E4CE8E;}
	.st1{fill:#A79E8B;}
	.st2{fill:#314A52;}
	.st3{fill:#FF6C58;}
</style>
<g id="Envelope">
	<rect x="11" y="3" class="st0" width="42" height="58"/>
	<path class="st1" d="M16,0c-4.4,0-8,3.6-8,8v48c0,4.4,3.6,8,8,8h32l5-3V28h-1c0,9.8-6.3,18.2-15.4,21.9C34,51.2,30.2,52,26,52
		c-7.7,0-14-2.7-14-6V17.2c1.5,1.7,3.7,2.8,6.1,2.8h27.9c3.3,0,6.2-2,7.4-5l2.5-6.2l-3.7-1.5l-2.5,6.2C49,15,47.6,16,45.9,16H18.1
		c-1.6,0-3.1-1-3.7-2.5L12,7.7c0.2-2,1.9-3.7,4-3.7h8V0H16z"/>
	<path class="st2" d="M20,0h28c4.4,0,8,3.6,8,8v48c0,4.4-3.6,8-8,8h-4v-4h4c2.2,0,4-1.8,4-4V8c0-2.2-1.8-4-4-4H20V0z M28.6,12.8
		l1.8,5.2l-1.8,5.2h6.8L33.6,18l1.8-5.2H28.6z"/>
	<path class="st3" d="M36,12c0,2.2-1.8,4-4,4c-2.2,0-4-1.8-4-4c0-2.2,1.8-4,4-4C34.2,8,36,9.8,36,12z M32,20c-2.2,0-4,1.8-4,4
		c0,2.2,1.8,4,4,4c2.2,0,4-1.8,4-4C36,21.8,34.2,20,32,20z"/>
</g>
</svg>
