<?xml version="1.0" encoding="iso-8859-1"?>
<!-- Generator: Adobe Illustrator 24.0.3, SVG Export Plug-In . SVG Version: 6.00 Build 0)  -->
<svg version="1.1" xmlns="http://www.w3.org/2000/svg" xmlns:xlink="http://www.w3.org/1999/xlink" x="0px" y="0px"
	 viewBox="0 0 64 64" style="enable-background:new 0 0 64 64;" xml:space="preserve">
<g id="laptop-speech-bubble">
	<path style="fill:#47705D;" d="M43.809,27.776v1.568h15.999v-1.568H43.809z M43.809,30.779v1.568h15.999v-1.568H43.809z
		 M43.809,33.783v1.568h15.999v-1.568H43.809z M5.189,16.272v1.568h19.844v-1.568H5.189z M5.189,19.687v1.568h19.844v-1.568H5.189z
		 M5.189,23.101v1.568h19.844v-1.568H5.189z M5.189,24.669h19.844v-1.568H5.189V24.669z M5.189,21.254h19.844v-1.568H5.189V21.254z
		 M5.189,16.272v1.568h19.844v-1.568H5.189z M43.809,35.351h15.999v-1.568H43.809V35.351z M43.809,32.347h15.999v-1.568H43.809
		V32.347z M43.809,27.776v1.568h15.999v-1.568H43.809z M60.857,40.799c1.731,0,3.143-1.412,3.143-3.143v-12.15
		c0-1.731-1.412-3.135-3.143-3.135h-3.909v-2.864c0-1.404-1.065-2.501-2.429-2.501H29.345v-3.363c0-1.966-1.6-3.566-3.566-3.566
		H4.444c-1.966,0-3.566,1.6-3.566,3.566v14.328c0,1.966,1.6,3.566,3.566,3.566h2.501v18.257H0.782C0.351,49.794,0,50.145,0,50.58
		v0.846c0,1.376,1.089,2.497,2.425,2.497h59.042c1.34,0,2.429-1.121,2.429-2.497V50.58c0-0.435-0.351-0.786-0.786-0.786h-6.163
		v-8.995H60.857z M29.345,18.574h25.173c0.495,0,0.862,0.399,0.862,0.933v2.864h-1.049v-2.166c0-0.431-0.347-0.786-0.786-0.786
		h-24.2V18.574z M29.345,27.971v-6.98h23.418v1.38h-10c-1.735,0-3.147,1.404-3.147,3.135v12.15c0,1.731,1.412,3.143,3.147,3.143
		h0.79v4.4c0,0.634,0.379,1.201,0.973,1.452c0.187,0.08,0.391,0.116,0.594,0.116c0.411,0,0.81-0.164,1.117-0.463l5.505-5.505h1.021
		v6.418H11.133v-15.68h4.116l6.538,6.538c0.327,0.327,0.762,0.503,1.209,0.503c0.219,0,0.443-0.044,0.658-0.132
		c0.642-0.267,1.057-0.889,1.057-1.584v-5.325h1.069C27.746,31.537,29.345,29.938,29.345,27.971z M10.347,48.785h43.198
		c0.439,0,0.786-0.347,0.786-0.786v-7.2h1.049v8.987H8.512V31.537h1.053v16.462C9.565,48.438,9.908,48.785,10.347,48.785z
		 M4.444,29.97c-1.105,0-1.998-0.897-1.998-1.998V13.644c0-1.101,0.893-1.998,1.998-1.998h21.336c1.101,0,1.998,0.897,1.998,1.998
		v14.328c0,1.101-0.897,1.998-1.998,1.998h-1.855c-0.435,0-0.786,0.351-0.786,0.786v6.107c0,0.024,0,0.096-0.088,0.132
		c-0.088,0.04-0.14-0.012-0.156-0.028l-6.765-6.765c-0.148-0.148-0.347-0.231-0.554-0.231H4.444z M62.329,51.366v0.06
		c0,0.515-0.387,0.929-0.862,0.929H2.425c-0.475,0-0.858-0.415-0.858-0.929v-0.06H62.329z M51.411,39.232
		c-0.203,0-0.407,0.088-0.546,0.227l-5.744,5.74v-5.181c0-0.435-0.351-0.786-0.782-0.786h-1.576c-0.866,0-1.58-0.706-1.58-1.576
		v-12.15c0-0.862,0.714-1.568,1.58-1.568h18.093c0.862,0,1.576,0.706,1.576,1.568v12.15c0,0.87-0.714,1.576-1.576,1.576H51.411z
		 M59.808,33.783H43.809v1.568h15.999V33.783z M59.808,30.779H43.809v1.568h15.999V30.779z M59.808,27.776H43.809v1.568h15.999
		V27.776z M25.034,23.101H5.189v1.568h19.844V23.101z M25.034,19.687H5.189v1.568h19.844V19.687z M25.034,16.272H5.189v1.568h19.844
		V16.272z"/>
	<path style="fill:#ABD8C7;" d="M39.617,25.506v12.15c0,1.731,1.412,3.143,3.147,3.143h0.79v4.4c0,0.634,0.379,1.201,0.973,1.452
		c0.187,0.08,0.391,0.116,0.594,0.116c0.411,0,0.81-0.164,1.117-0.463l5.505-5.505h1.021v6.418H11.133v-15.68h4.116l6.538,6.538
		c0.327,0.327,0.762,0.503,1.209,0.503c0.219,0,0.443-0.044,0.658-0.132c0.642-0.267,1.057-0.889,1.057-1.584v-5.325h1.069
		c1.966,0,3.566-1.6,3.566-3.566v-6.98h23.418v1.38h-10C41.029,22.371,39.617,23.775,39.617,25.506z"/>
	<g>
		<rect x="10.734" y="31.537" style="fill:#9AC1B1;" width="2.393" height="15.68"/>
	</g>
</g>
<g id="Layer_1">
</g>
</svg>
